<?xml version="1.0" encoding="UTF-8"?>
<svg xmlns="http://www.w3.org/2000/svg" xmlns:xlink="http://www.w3.org/1999/xlink" version="1.1" id="Capa_1" x="0px" y="0px" viewBox="0 0 512.266 512.266" style="enable-background:new 0 0 512.266 512.266;" xml:space="preserve" width="512" height="512">
<g>
	<g>
		<path style="fill:none;stroke:#000000;stroke-width:15;stroke-miterlimit:10;" d="M358.545,129.972l-4.87,2.665&#10;&#9;&#9;&#9;c-12.187,6.675-27.481,2.195-34.146-9.995l-13.297-24.303L350.44,74.31l25.161,46.018"/>
		
			<line style="fill:none;stroke:#000000;stroke-width:15;stroke-miterlimit:10;" x1="259.646" y1="123.66" x2="397.023" y2="48.99"/>
		<polygon style="fill:none;stroke:#000000;stroke-width:15;stroke-miterlimit:10;" points="354.862,71.907 301.807,100.744 &#10;&#9;&#9;&#9;288.831,56.064 324.146,36.739 &#9;&#9;"/>
		<path style="fill:none;stroke:#000000;stroke-width:15;stroke-miterlimit:10;" d="M338.766,211.668&#10;&#9;&#9;&#9;c0,0-51.536,21.165-68.436,28.856c-14.106,6.419-37.351-1.951-37.27-18.626l0,0l90.087-37.982l44.354-41.41&#10;&#9;&#9;&#9;c6.094-5.69,15.647-5.362,21.337,0.732v0c5.69,6.094,5.362,15.647-0.732,21.337L338.766,211.668z"/>
		
			<line style="fill:none;stroke:#000000;stroke-width:15;stroke-miterlimit:10;" x1="268.034" y1="205.542" x2="285.738" y2="233.8"/>
		<path style="fill:none;stroke:#000000;stroke-width:15;stroke-miterlimit:10;" d="M448.313,280.046v208.76&#10;&#9;&#9;&#9;c0,8.29-6.72,15.96-15,15.96h-23.51"/>
		<path style="fill:none;stroke:#000000;stroke-width:15;stroke-miterlimit:10;" d="M352.963,156.086&#10;&#9;&#9;&#9;c-0.9-5.3-0.54-10.68,0.95-15.71c2.55-8.59,8.35-16.21,16.85-20.83c16.98-9.23,38.23-2.94,47.46,14.04c0,0,20.61,30.4,37.71,64.38&#10;&#9;&#9;&#9;"/>
		<path style="fill:none;stroke:#000000;stroke-width:15;stroke-miterlimit:10;" d="M462.443,211.526&#10;&#9;&#9;&#9;c9.08,19.86,15.92,39.73,15.92,54.47c0,55.7,0,222.81,0,222.81c0,8.29-6.72,15.96-15,15.96h-83.61v-10.96l28.56-20l0.03-207.81&#10;&#9;&#9;&#9;l-42.04-80.61"/>
		
			<line style="fill:none;stroke:#000000;stroke-width:15;stroke-miterlimit:10;" x1="408.313" y1="385.267" x2="478.366" y2="385.267"/>
		
			<line style="fill:none;stroke:#000000;stroke-width:15;stroke-miterlimit:10;" x1="373.696" y1="197.037" x2="434.696" y2="163.881"/>
		
			<line style="fill:none;stroke:#000000;stroke-width:15;stroke-miterlimit:10;" x1="512.133" y1="504.766" x2="274.383" y2="504.766"/>
		
			<line style="fill:none;stroke:#000000;stroke-width:15;stroke-miterlimit:10;" x1="259.383" y1="504.766" x2="0.133" y2="504.766"/>
		<line style="fill:none;stroke:#000000;stroke-width:15;stroke-miterlimit:10;" x1="137.227" y1="440.511" x2="137.227" y2="0"/>
		<path style="fill:none;stroke:#000000;stroke-width:15;stroke-miterlimit:10;" d="M173.633,339.856&#10;&#9;&#9;&#9;c-19.85,7.68-36.41,26.93-36.41,26.93"/>
		<path style="fill:none;stroke:#000000;stroke-width:15;stroke-miterlimit:10;" d="M202.343,338.176&#10;&#9;&#9;&#9;c14.3,3.34,26.35,13.22,26.35,36c-65.6-24.24-62.54,31.21-91.47,31.21"/>
		<path style="fill:none;stroke:#000000;stroke-width:15;stroke-miterlimit:10;" d="M136.688,405.386&#10;&#9;&#9;&#9;c-28.928,0-25.864-55.45-91.462-31.213c0-29.343,20.012-37.294,39.045-37.402c26.066-0.616,52.417,30.017,52.417,30.017"/>
		<path style="fill:none;stroke:#000000;stroke-width:15;stroke-miterlimit:10;" d="M137.227,115.386&#10;&#9;&#9;&#9;c28.928,0,25.864-55.45,91.462-31.213c0-29.343-20.012-37.294-39.045-37.402c-26.066-0.616-52.417,30.017-52.417,30.017"/>
		<path style="fill:none;stroke:#000000;stroke-width:15;stroke-miterlimit:10;" d="M137.227,239.399&#10;&#9;&#9;&#9;c-27.243,0-26.316-55.45-91.914-31.213c0-29.343,19.596-37.657,38.629-37.765c26.066-0.616,53.285,30.38,53.285,30.38"/>
		<path style="fill:none;stroke:#000000;stroke-width:15;stroke-miterlimit:10;" d="M137.227,282.806&#10;&#9;&#9;&#9;c14.903,0,20.381-40.643,68.462-22.878c0-21.507-16.903-33.748-30.853-33.827c-19.106-0.452-37.608,21.414-37.608,21.414"/>
		<path style="fill:none;stroke:#000000;stroke-width:15;stroke-miterlimit:10;" d="M71.214,295.159&#10;&#9;&#9;&#9;c17.574,17.574,30.272,13.366,35.961,7.677s9.897-18.388-7.677-35.961c-17.574-17.574-46.717-36.923-55.963-27.678&#10;&#9;&#9;&#9;S53.641,277.585,71.214,295.159z"/>
		
			<line style="fill:none;stroke:#000000;stroke-width:15;stroke-miterlimit:10;" x1="100.101" y1="267.477" x2="52.699" y2="272.466"/>
		
			<line style="fill:none;stroke:#000000;stroke-width:15;stroke-miterlimit:10;" x1="107.176" y1="302.836" x2="137.227" y2="332.926"/>
		<path style="fill:none;stroke:#000000;stroke-width:15;stroke-miterlimit:10;" d="M202.993,173.889&#10;&#9;&#9;&#9;c-17.574,17.574-30.272,13.366-35.961,7.677c-5.689-5.689-9.897-18.388,7.677-35.961s46.717-36.923,55.963-27.678&#10;&#9;&#9;&#9;C239.916,127.172,220.567,156.315,202.993,173.889z"/>
		
			<line style="fill:none;stroke:#000000;stroke-width:15;stroke-miterlimit:10;" x1="173.879" y1="147.926" x2="221.28" y2="152.915"/>
		
			<line style="fill:none;stroke:#000000;stroke-width:15;stroke-miterlimit:10;" x1="167.032" y1="181.566" x2="137.227" y2="211.656"/>
		<path style="fill:none;stroke:#000000;stroke-width:15;stroke-miterlimit:10;" d="M207.667,334.554&#10;&#9;&#9;&#9;c-19.879,14.916-31.856,8.958-36.685,2.522s-7.201-19.601,12.678-34.517c19.879-14.916,51.463-29.957,59.31-19.499&#10;&#9;&#9;&#9;S227.546,319.638,207.667,334.554z"/>
		
			<line style="fill:none;stroke:#000000;stroke-width:15;stroke-miterlimit:10;" x1="182.51" y1="304.74" x2="228.732" y2="316.372"/>
		<path style="fill:none;stroke:#000000;stroke-width:15;stroke-miterlimit:10;" d="M137.227,91.106c0,0,0-36.255-46.255-36.255"/>
		<path style="fill:none;stroke:#000000;stroke-width:15;stroke-miterlimit:10;" d="M137.227,55.106c0,0,0-36.255,46.255-36.255"/>
		<path style="fill:none;stroke:#000000;stroke-width:15;stroke-miterlimit:10;" d="M47.984,504.766&#10;&#9;&#9;&#9;c0,0,25.234-64.255,89.243-64.255c69.436,0,87.353,64.255,87.353,64.255"/>
		<path style="fill:none;stroke:#000000;stroke-width:15;stroke-miterlimit:10;" d="M136.688,151.806&#10;&#9;&#9;&#9;c-14.903,0-20.381-40.643-68.462-22.878c0-21.507,16.903-33.748,30.853-33.827c19.106-0.452,37.608,21.414,37.608,21.414"/>
	</g>
	<g>
		
			<line style="fill:none;stroke:#000000;stroke-width:15;stroke-miterlimit:10;" x1="113.782" y1="476.638" x2="128.782" y2="476.638"/>
		
			<line style="fill:none;stroke:#000000;stroke-width:15;stroke-miterlimit:10;" x1="143.782" y1="476.638" x2="158.782" y2="476.638"/>
	</g>
</g>















</svg>
