<svg clip-rule="evenodd" fill-rule="evenodd" height="2048" image-rendering="optimizeQuality" shape-rendering="geometricPrecision" text-rendering="geometricPrecision" viewBox="0 0 2048 2048" width="2048" xmlns="http://www.w3.org/2000/svg"><g id="Layer_x0020_1"><g id="_293697600"><path id="_293698560" d="m686.417 538.582c-7.43386 26.6551-19.7847 46.3205-32.6292 66.8138-5.78032 9.18426-11.7709 18.6874-17.6351 29.3032-67.9359 123.184-70.9949 222.775-8.13662 266.408 47.25 32.8075 117.581 22.3725 156.775-23.2725 24.078-28.0158 85.4906-133.179-98.3741-339.253zm4.58622 413.142c-28.7457 0-57.2044-7.97481-81.0768-24.5646-24.652-17.1012-54.763-50.5347-58.2721-112.675-3.13701-55.4894 15.9414-121.132 56.7449-195.108 6.28111-11.4036 12.5138-21.2906 18.5032-30.8551 16.891-26.8949 30.2717-48.1311 33.9473-85.5768.579922-6.17953 4.7504-11.4366 10.6146-13.4516 5.86418-2.01969 12.3898-.413386 16.6843 4.09252 83.3044 87.9638 134.308 170.338 151.571 244.821 14.6221 63.0485 3.67559 119.906-30.8504 160.095-29.8559 34.7492-74.1745 53.2264-117.866 53.2217z"/><path id="_293699160" d="m626.533 1181.07c-3.59174 0-7.22953-1.21536-10.2036-3.70985-6.68977-5.62796-7.55788-15.6307-1.94173-22.3429 140.915-167.881 69.7973-427.923 69.0945-430.53-2.3941-8.43072 2.51929-17.1886 10.9441-19.5673 8.42953-2.37047 17.1815 2.53465 19.5768 10.9654 3.18189 11.2996 76.239 278.929-75.3319 459.526-3.13347 3.73583-7.63938 5.66221-12.1382 5.65867z"/><path id="_293698896" d="m208.701 764.468c15.7382 275.72 133.521 306.663 170.319 309.459 60.0095 4.54252 117.126-37.8059 127.328-94.4245 13.591-75.2847-58.976-143.55-194.15-182.602-11.6445-3.37087-22.591-5.86418-33.1642-8.27717-23.5819-5.38937-46.2142-10.5567-70.3323-24.1547zm178.993 341.502c-3.67677 0-7.35237-.135827-11.0693-.416929-52.8225-4.01103-100.772-36.4618-135.01-91.3784-40.4729-64.8792-62.6504-159.191-65.9138-280.315-.165354-6.20906 3.30355-11.9398 8.87953-14.674 5.57717-2.73189 12.2244-1.95354 17.015 1.98543 29.0788 23.8748 53.5666 29.4603 84.4997 36.5315 11.0291 2.50866 22.4256 5.10709 34.8981 8.72599 81.1961 23.4496 141.08 56.3658 178.128 97.8308 41.4225 46.4292 43.7776 91.3642 38.4496 120.876-12.3862 68.6103-78.3048 120.835-149.877 120.834z"/><path id="_293698224" d="m626.533 1181.07c-1.36181 0-2.72835-.170079-4.09134-.538583-197.369-52.9028-303.802-262.971-308.221-271.889-3.87756-7.84253-.701575-17.3622 7.14567-21.261 7.84961-3.90237 17.3445-.7063 21.2693 7.13386l.00354331-.0011811c.988583 2.05276 104.65 206.234 287.98 255.382 8.46733 2.26063 13.5047 10.9606 11.2323 19.4232-1.89567 7.08071-8.30079 11.7532-15.3189 11.7508z"/><path id="_293698032" d="m626.533 1349.51c-8.75434 0-15.8622-7.09843-15.8622-15.8587l.00472441-168.443c0-8.75906 7.09843-15.8563 15.8551-15.8563 8.75552-.0011811 15.8587 7.09843 15.8587 15.8587v168.437c0 8.76379-7.10316 15.8622-15.8563 15.8622z"/><path id="_293697960" d="m818.492 1928h-383.924c-8.21457 0-15.1158-6.2752-15.8173-14.4933l-41.1721-474.12c-.785434-8.72953 5.69528-16.415 14.4106-17.1709 8.75552-.777166 16.4362 5.69882 17.1791 14.426l39.9378 459.642h354.852l39.9756-459.656c.786615-8.72481 8.46497-15.1807 17.1791-14.4236 8.71536.759449 15.1984 8.44489 14.413 17.1721l-41.2134 474.127c-.702756 8.2193-7.60158 14.4992-15.8209 14.4969z"/><path id="_293698080" d="m408.179 1349.51c-20.6067 0-37.3772 16.7681-37.3772 37.376.00236221 20.6138 16.7681 37.3819 37.3772 37.3819l436.707-.00472441c20.6067 0 37.3725-16.7634 37.3725-37.3772.00236221-20.6079-16.7681-37.376-37.376-37.376h-436.703zm436.707 106.474h-436.707c-38.0764 0-69.0957-30.9969-69.0957-69.0981 0-38.1 31.0158-69.0934 69.0957-69.0934l436.707-.00236221c38.0764 0 69.091 30.9981 69.091 69.0957.00472441 38.0977-31.0158 69.1004-69.091 69.0981z"/><path id="_293698152" d="m811.596 1050.28c-4.87441 0-9.70631-2.23583-12.8043-6.46418-5.20394-7.05591-3.67559-16.9831 3.38622-22.1705 17.0185-12.5032 36.2611-23.8418 57.2422-33.7051 7.88977-3.72874 17.3457-.327166 21.0626 7.60394 3.76181 7.92048.329528 17.374-7.59922 21.1004-19.0772 8.98229-36.5504 19.2662-51.9142 30.5528-2.84528 2.07992-6.11221 3.08504-9.37324 3.08268zm-87.3485 128.171c-1.19882 0-2.39764-.134646-3.63662-.415748-8.50394-1.98189-13.8354-10.5024-11.8536-19.0347 5.20748-22.4209 13.6701-43.6583 25.1103-63.1394 4.41969-7.56024 14.1662-10.0807 21.6827-5.64095 7.55788 4.43622 10.0772 14.1567 5.65867 21.7063-9.82796 16.7126-17.0575 34.9642-21.5587 54.2469-1.69252 7.3252-8.21812 12.2787-15.4028 12.2776z"/><path id="_293697720" d="m1849.42 575.259c-2.68583 0-5.41182-.68504-7.93229-2.1248l-514.471-297.032c-7.55434-4.38071-10.1599-14.0752-5.7815-21.6626 4.37835-7.58977 14.0823-10.1811 21.6402-5.80748l514.477 297.025c7.59568 4.38189 10.1965 14.0858 5.8193 21.6685-2.93032 5.08465-8.26064 7.93465-13.7516 7.93347zm-237.642 411.581c-2.68347 0-5.41063-.68504-7.88741-2.13071l-514.469-297.031c-7.60158-4.38071-10.2047-14.0799-5.82756-21.6626 4.38189-7.58977 14.0835-10.1799 21.6827-5.8063l514.474 297.03c7.56024 4.38189 10.1575 14.0811 5.77914 21.6685-2.93032 5.08465-8.25946 7.93347-13.7528 7.93229z"/><path id="_293698248" d="m1034.45 961.937c-6.77481 0-13.0547-4.38071-15.1606-11.2039-2.55945-8.37048 2.10591-17.2429 10.4894-19.8154l348.655-107.15c8.38583-2.57953 17.2618 2.12953 19.8213 10.5047 2.56418 8.36812-2.14606 17.2417-10.4882 19.8154l-348.652 107.147c-1.56969.478347-3.14055.702756-4.66418.701575zm15.1146 56.4378c-7.23071 0-13.7563-4.97008-15.45-12.3154-1.97835-8.53701 3.3874-17.0457 11.8949-19.0016l441.499-101.254c8.55001-1.95118 17.0528 3.38032 18.9945 11.9126 1.98307 8.53465-3.34607 17.0445-11.8937 19.0063l-441.495 101.248c-1.1941.274016-2.39646.407481-3.54922.403937z"/><path id="_293698200" d="m994.471 1080.79c-7.0193 0-13.4232-4.66772-15.3236-11.7555-2.27008-8.46024 2.76732-17.1555 11.2335-19.4232 31.6382-8.47678 50.4674-41.1024 42.0024-72.7371-4.12914-15.326-13.9595-28.1292-27.6709-36.0603-13.748-7.93701-29.7355-10.0394-45.1004-5.92914-8.42009 2.25709-17.139-2.75433-19.4103-11.2181-2.27008-8.45906 2.76732-17.1555 11.2335-19.4185 23.504-6.30119 48.0319-3.06969 69.1359 9.09804 21.065 12.1665 36.137 31.813 42.4158 55.3217 13.0122 48.5197-15.8599 98.5772-64.3867 111.58-1.40079.369685-2.76732.544489-4.12914.542126z"/><path id="_293698296" d="m994.471 1080.79c-7.0193 0-13.4232-4.66772-15.3236-11.7555l-38.9445-145.371c-2.27126-8.45552 2.76614-17.152 11.2323-19.415 8.42717-2.28662 17.1402 2.75079 19.4114 11.2122l38.9481 145.364c2.27244 8.46142-2.72717 17.1555-11.1945 19.4232-1.40079.369685-2.76732.544489-4.12914.542126z"/><path id="_293698008" d="m1188.46 452.17c-65.2938 113.141-85.1623 187.335-82.3123 206.515 18.0508-7.12087 72.3579-61.4126 137.694-174.549 65.2997-113.144 85.1599-187.328 82.3111-206.511-18.0484 7.11969-72.3579 61.4126-137.694 174.549l.0011811-.00354331zm-81.4028 209.704h.0425197zm-4.213 29.3918c-4.83189 0-9.29292-1.2-13.4232-3.58347-19.3654-11.1921-19.9051-41.687-1.60984-95.9812 14.9539-44.3516 40.9689-99.5316 73.1823-155.386l.00236221-.0011811c32.2536-55.852 67.0689-105.945 98.0032-141.063 37.8756-42.9933 64.5107-57.7997 83.8796-46.6158 19.4114 11.1768 19.9063 41.6811 1.61102 95.9765-14.9469 44.3469-40.9276 99.5339-73.1847 155.384-32.2524 55.8473-67.0288 105.95-97.9619 141.064-29.817 33.8233-52.6571 50.2075-70.4989 50.2063z"/><path id="_293697288" d="m1841.49 573.127h.0425197zm-224.176 415.172c-4.83189 0-9.29292-1.20236-13.4221-3.58937-7.59686-4.37835-10.2012-14.0788-5.82284-21.6614 4.08898-7.06772 12.802-9.79961 20.0705-6.60709 15.0378-2.47323 71.5323-56.3823 140.171-175.273 68.641-118.895 87.0603-194.773 81.6922-209.009-6.39804-4.73268-8.38347-13.6252-4.29567-20.6906 4.37953-7.58977 14.0835-10.1894 21.6425-5.80394 19.4103 11.1815 19.9063 41.6847 1.60866 95.9812-14.9457 44.3433-40.9276 99.5292-73.1823 155.382-32.2536 55.8485-67.03 105.947-97.9631 141.064-29.8158 33.8197-52.6571 50.2075-70.4989 50.2075z"/><path id="_293697264" d="m1257.55 507.925c-2.68583 0-5.41182-.682678-7.93111-2.12362l-82.806-47.8229c-7.59686-4.38071-10.2012-14.0764-5.82402-21.6638 4.37953-7.58859 14.0847-10.1811 21.6839-5.80276l82.8083 47.817c7.6004 4.38189 10.1976 14.0799 5.8193 21.6662-2.93032 5.08583-8.25946 7.93347-13.7504 7.92993z"/><path id="_293697648" d="m1710.82 495.065c-6.97914 0-13.3843-4.66772-15.2823-11.7555l-36.2587-135.225c-26.1437-97.5887-68.3138-164.08-118.7-187.217-19.1634-8.78387-38.6563-11.2913-57.9851-7.44922-17.9646 3.56339-35.1461 12.6791-49.7256 26.3528-26.4272 24.861-42.6626 62.9126-44.4792 104.378-.412205 8.75198-7.76339 15.561-16.5614 15.1476-8.75552-.387402-15.5291-7.78819-15.1571-16.539 2.19331-49.6618 22.0536-95.6257 54.5162-126.105 18.8752-17.7449 41.4237-29.6197 65.2123-34.3465 25.6878-5.08701 52.4091-1.72559 77.3965 9.73583 41.8394 19.2012 99.4489 70.8532 136.123 207.841l36.2658 135.212c2.22992 8.46497-2.77087 17.1602-11.237 19.4268-1.36299.366142-2.76851.54567-4.12796.543308z"/><path id="_293696976" d="m867.147 1135.6c-4.87441 0-9.70985-2.25945-12.8079-6.53032-5.15906-7.08308-3.59292-17.0032 3.47008-22.1528 17.1012-12.4134 36.3839-23.6599 57.3662-33.4323 7.92993-3.68977 17.3858-.256299 21.0614 7.6819 3.72048 7.9382.28937 17.3752-7.68071 21.0709-19.1197 8.91379-36.6744 19.1173-52.0796 30.3307-2.8063 2.04685-6.07205 3.03544-9.32953 3.03189zm-88.219 127.631c-1.19882 0-2.4378-.13937-3.67796-.435827-8.54646-2.03977-13.7929-10.5945-11.7697-19.1103 5.37048-22.3713 13.9595-43.5626 25.5638-62.9941 4.50591-7.52127 14.2488-9.97442 21.7666-5.48504 7.51772 4.48701 9.95316 14.2276 5.45079 21.7488-9.95316 16.6642-17.3043 34.8697-21.9307 54.1063-1.73268 7.27323-8.21812 12.1713-15.4028 12.1701z"/></g></g><path d="m0 0h2048v2048h-2048z" fill="none"/></svg>